<?xml version="1.0" encoding="UTF-8" standalone="no"?>
<!-- Uploaded to: SVG Repo, www.svgrepo.com, Generator: SVG Repo Mixer Tools -->

<svg
   width="800"
   height="450"
   viewBox="0 -71.99 367.672 206.8155"
   version="1.1"
   id="svg1"
   xmlns="http://www.w3.org/2000/svg"
   xmlns:svg="http://www.w3.org/2000/svg">
  <defs
     id="defs1" />
  <g
     id="Group_31"
     data-name="Group 31"
     transform="translate(-2803.5439,-100.53802)">
    <g
       id="Group_26"
       data-name="Group 26">
      <rect
         id="Rectangle_9"
         data-name="Rectangle 9"
         width="44.998001"
         height="106.05292"
         fill="#54c7f5"
         x="2923.9761"
         y="118.55908"
         style="stroke-width:0.988509" />
      <path
         id="Path_133"
         data-name="Path 133"
         d="m 2959.6,82.426 45,-42.394 v 184.58 h -45 z"
         fill="#54c7f5"
         fill-rule="evenodd" />
      <path
         id="Path_134"
         data-name="Path 134"
         d="m 2996.629,120.558 13.91,-17.014 13.929,-17.144 13.929,17.141 13.91,17.014 v 104.057 h -55.677 z"
         fill="#54c7f5"
         fill-rule="evenodd" />
      <path
         id="Path_135"
         data-name="Path 135"
         d="m 3042.979,161.846 h 29.583 V 148.71 h 24.377 v 75.9 h -53.959 z"
         fill="#54c7f5"
         fill-rule="evenodd" />
      <path
         id="Path_136"
         data-name="Path 136"
         d="m 3084.283,140.14421 h 10.8753 V 130.0123 h 41.8527 v 10.13191 h 10.8755 V 224.611 h -63.6035 z"
         fill="#54c7f5"
         fill-rule="evenodd"
         style="stroke-width:1.08334" />
      <path
         id="Path_137"
         data-name="Path 137"
         d="m 2878.041,156.881 h 58.719 v 9.274 h -5.625 v 58.457 h -53.094 v -58.457 h -5.625 v -9.274 z"
         fill="#54c7f5"
         fill-rule="evenodd" />
      <path
         id="Path_138"
         data-name="Path 138"
         d="m 2846.636,100.439 h 6.9 V 90.111 h 6.562 v -6.956 h 5.871 V 44.439 h 6.328 v 38.716 h 5.872 v 6.955 h 6.562 v 10.329 h 6.9 v 124.173 h -45 z"
         fill="#54c7f5"
         fill-rule="evenodd" />
      <rect
         id="Rectangle_10"
         data-name="Rectangle 10"
         width="9.375"
         height="108.533"
         transform="translate(2959.6,116.079)"
         fill="#00a1ed"
         x="0"
         y="0" />
      <path
         id="Path_139"
         data-name="Path 139"
         d="m 3004.6,110.812 v 113.8 h -7.969 V 120.558 Z"
         fill="#00a1ed"
         fill-rule="evenodd" />
      <rect
         id="Rectangle_11"
         data-name="Rectangle 11"
         width="9.3280001"
         height="62.764999"
         transform="translate(3042.979,161.846)"
         fill="#00a1ed"
         x="0"
         y="0" />
      <path
         id="Path_140"
         data-name="Path 140"
         d="m 3084.283,224.612 v -75.9 h 12.655 v 75.9 z"
         fill="#00a1ed"
         fill-rule="evenodd" />
      <path
         id="Path_141"
         data-name="Path 141"
         d="m 2878.041,156.881 h 13.594 v 67.731 h -13.594 v -58.457 h -5.625 v -9.274 z"
         fill="#00a1ed"
         fill-rule="evenodd" />
      <path
         id="Path_142"
         data-name="Path 142"
         d="m 2923.976,156.881 h 12.783 v 9.274 h -5.625 v 58.457 h -7.159 z"
         fill="#00a1ed"
         fill-rule="evenodd" />
    </g>
    <g
       id="Group_28"
       data-name="Group 28">
      <g
         id="Group_27"
         data-name="Group 27">
        <path
           id="Path_143"
           data-name="Path 143"
           d="m 2871.422,212.3 v 48.427 h -60.084 V 212.3 h -5.649 v -3.757 h -0.025 l 17.858,-14.276 17.858,-14.276 17.858,14.276 17.858,14.276 h -0.025 v 3.757 z"
           fill="#fdac71"
           fill-rule="evenodd" />
        <path
           id="Path_144"
           data-name="Path 144"
           d="m 2862.765,226.514 45.752,-22.917 22.207,11.064 v -11.428 h 9.623 v 16.248 l 13.923,7.033 v 34.213 h -91.505 z"
           fill="#fdac71"
           fill-rule="evenodd" />
        <path
           id="Path_145"
           data-name="Path 145"
           d="m 3018.053,260.727 h 90.25 v -50.116 h 4.587 v -3.891 l -17.611,-20.32 h -46.053 V 178 h -9.626 v 8.4 h -8.4 l -17.736,20.324 v 3.891 h 4.587 z"
           fill="#fdac71"
           fill-rule="evenodd" />
        <path
           id="Path_146"
           data-name="Path 146"
           d="m 3100.3,231.117 39.645,-37.665 v 67.275 H 3100.3 Z"
           fill="#fdac71"
           fill-rule="evenodd" />
        <path
           id="Path_147"
           data-name="Path 147"
           d="m 3170.337,232.3 -30.062,-28.561 v 56.992 h 30.062 z"
           fill="#fdac71"
           fill-rule="evenodd" />
        <path
           id="Path_148"
           data-name="Path 148"
           d="m 2947.923,260.727 h 78.041 v -86.521 l -18.786,-23.021 -18.789,23.021 v 7.865 h -22.8 l -17.667,23.877 z"
           fill="#fdac71"
           fill-rule="evenodd" />
      </g>
      <path
         id="Path_149"
         data-name="Path 149"
         d="m 2871.422,222.177 v 38.551 h -8.658 v -34.214 z"
         fill="#f36a10"
         fill-rule="evenodd" />
      <path
         id="Path_150"
         data-name="Path 150"
         d="m 2947.923,223.308 6.346,3.206 v 34.214 h -6.346 z"
         fill="#f36a10"
         fill-rule="evenodd" />
      <path
         id="Path_151"
         data-name="Path 151"
         d="m 3100.3,260.728 h 8 v -37.214 l -8,7.6 z"
         fill="#f36a10"
         fill-rule="evenodd" />
      <path
         id="Path_152"
         data-name="Path 152"
         d="m 3018.053,260.728 h 7.91 V 192.4 l -12.5,14.322 v 3.891 h 4.588 z"
         fill="#f36a10"
         fill-rule="evenodd" />
    </g>
    <g
       id="Group_30"
       data-name="Group 30">
      <g
         id="Group_29"
         data-name="Group 29">
        <g
           id="Path_153"
           style="fill:#afdde9">
          <path
             d="m 2930.2999,114.57886 c -0.8284,6e-5 -1.4999,0.67158 -1.4999,1.49995 v 41.69882 c 0.5383,-0.54899 1.1927,-0.82672 1.8482,-0.82672 0.3924,0 -1.6957,0.0995 -1.3284,0.29622 l 2.4801,-39.66837 h 42.0004 l 2.4801,64.49341 h 0.5198 v -65.99336 c 0,-0.82841 -0.6716,-1.49995 -1.5,-1.49995 z m -1.4999,89.18829 v 9.93684 l 1.92,0.95688 v -9.29952 c -0.7342,-0.17687 -1.4305,-0.70624 -1.92,-1.5942 z"
             id="path58"
             style="fill:#afdde9" />
          <path
             style="fill:#afdde9;fill-opacity:0.0856354"
             d="m 2930.3008,114.07813 c -1.0986,7e-5 -2,0.9014 -2,2 v 42.92382 l 0.8555,-0.875 c 0.1239,-0.12642 0.2739,-0.0937 0.4062,-0.18359 l 0.207,0.11133 0.014,-0.21094 c 0.279,-0.1455 0.5477,-0.3742 0.8359,-0.37891 0.053,-0.005 0.085,-0.005 0.1504,-0.0156 0.01,-0.002 0.021,-0.003 0.041,-0.008 0.01,-0.002 0.022,-0.007 0.043,-0.0137 0.01,-0.004 0.041,-0.0155 0.041,-0.0156 2e-4,-8e-5 0.07,-0.037 0.07,-0.0371 2e-4,-7e-5 0.1309,-0.12102 0.1309,-0.12109 1e-4,-7e-5 0.096,-0.37298 0.096,-0.37305 0,-7e-5 -0.164,-0.30462 -0.1641,-0.30469 0,-6e-5 -0.1268,-0.08 -0.1269,-0.0801 -3e-4,-1.2e-4 -0.084,-0.0291 -0.1035,-0.0332 -0.02,-0.004 -0.033,-0.007 -0.043,-0.008 -0.08,-0.01 -0.076,-0.004 -0.1055,-0.004 -0.092,0 -0.1628,0.10234 -0.2539,0.11133 0.013,-0.0124 0.035,-0.0313 0.035,-0.0312 -10e-5,7e-5 0.068,-0.0372 0.068,-0.0371 -1e-4,8e-5 0.029,-0.0103 0.039,-0.0137 0.02,-0.007 0.032,-0.01 0.041,-0.0117 0.018,-0.004 0.025,-0.005 0.029,-0.006 0.037,-0.006 -0.033,0.002 -0.1,0.008 -0.1324,0.0122 -0.3495,0.0328 -0.5723,0.0586 -0.025,0.003 -0.047,0.009 -0.072,0.0117 l 2.4062,-38.46289 h 41.0489 l 2.4804,64.49414 h 1.502 v -66.49414 c 0,-1.09867 -0.9014,-2 -2,-2 z m 0,1 h 45 c 0.5581,0 1,0.44184 1,1 v 53.50976 l -2.0195,-52.50976 h -42.9512 l -2.0293,32.45507 v -33.45507 c 0,-0.55815 0.4418,-0.99996 1,-1 z m -1.0625,88.44726 -0.9375,0.24219 v 10.24609 l 2.9199,1.45508 V 204.9668 l -0.3828,-0.0918 c -0.5833,-0.14052 -1.1663,-0.56364 -1.5996,-1.34961 z m 0.062,1.62695 c 0.2817,0.23935 0.5992,0.37431 0.9199,0.50196 v 8.19922 l -0.9199,-0.45899 z"
             id="path59" />
        </g>
        <path
           id="Path_154"
           d="m 3010.9553,38.540953 c -0.3909,-0.0087 -0.7697,0.135639 -1.0557,0.402141 l -44.9249,42.323572 c -0.3489,0.284092 -0.5519,0.709805 -0.5529,1.159746 v 34.904608 c 0.6025,-0.86061 1.4123,-1.26961 2.2144,-1.2558 0.2654,0.005 -1.9505,1.29954 -1.6946,1.39533 l 2.4801,-34.403225 42.0004,-39.566929 -0.62,111.059854 2.3799,3.0567 1.24,-117.584125 c 0,-0.812434 -0.6545,-1.473847 -1.4667,-1.491872 z m -46.5335,141.604887 v 3.49091 l 1.1624,-1.56997 h 1.8375 v -1.7468 c -0.9228,0.32615 -2.0237,0.31939 -2.9999,-0.17414 z"
           style="fill:#37abc8" />
        <path
           id="Path_155"
           d="m 3030.364,84.97211 c -0.286,0.086 -0.5398,0.255404 -0.7289,0.486519 l -13.8622,17.061381 -0.066,0.0754 -5.3868,6.58776 c 1.038,0.4203 1.6806,1.49932 1.4937,2.91103 l 6.2161,-7.60388 c 0.025,-0.029 0.047,-0.0597 0.069,-0.0907 l 12.7006,-15.626059 12.7608,15.726599 13.5696,16.59999 v 65.29948 h 0.5207 l 2.4801,-65.83985 c -1e-4,-0.34624 -0.12,-0.68178 -0.3393,-0.9497 l -13.9098,-17.01291 -13.9152,-17.125116 c -0.382,-0.477453 -1.0155,-0.675269 -1.6013,-0.499984 z m -25.904,48.18963 c -0.082,0.52605 -0.117,1.04382 0,1.38056 z m -2.9999,19.27764 v 5.75296 l 2.9999,-3.67672 v -1.87876 c -0.8899,0.59274 -2.0357,0.5541 -2.9999,-0.19748 z"
           style="fill:#87cdde" />
        <path
           id="Path_156"
           style="fill:#2c89a0;stroke-width:1.03856"
           d="m 3076.8553,147.20885 c -0.8934,1.6e-4 -1.6176,0.67166 -1.6176,1.49996 v 11.63696 h -16.7804 c 0.4079,1.02678 0.089,2.19465 -0.956,2.9999 h 19.354 c 0.8937,2.5e-4 1.6184,-0.67136 1.6184,-1.49995 v -11.63607 h 23.0549 v 43.67093 l 0.7559,3.46218 2.4801,-48.63395 c 0,-0.8283 -0.7242,-1.4998 -1.6176,-1.49996 z" />
        <path
           id="Path_157"
           style="fill:#5fbcd3;stroke-width:1.29932"
           d="m 3101.5187,119.21156 c -1.0348,-1.2e-4 -1.8737,0.9083 -1.8733,2.02866 v 13.01574 h -8.6622 c -1.0359,-7.1e-4 -1.8756,0.90897 -1.8743,2.03045 v 11.88112 l 3.7458,-9.85336 h 8.664 c 1.0342,-3.6e-4 1.8724,-0.90809 1.8725,-2.02776 v -13.01753 h 36.7986 v 13.01753 c 10e-5,1.12005 0.8389,2.02794 1.8734,2.02776 h 8.6622 v 75.15015 c 1.4493,-0.0318 1.2387,1.22012 1.8904,3.95858 l 1.8599,-81.13828 c 4e-4,-1.1204 -0.8385,-2.02884 -1.8734,-2.02866 h -8.6622 v -13.01574 c 4e-4,-1.12036 -0.8385,-2.02878 -1.8733,-2.02866 z m -12.4098,28.95597 -0.3142,0.82672 c 0.7255,-0.51174 2.2846,-0.77348 1.6598,-0.77376 -0.4678,-2.1e-4 -0.9303,0.14359 -1.3456,0.42997 z m -0.3142,0.82672 c -0.2918,0.20585 -0.4611,0.44764 -0.28,0.73607 z" />
        <path
           d="m 2884.368,155.381 h 58.719 c 0.8284,0 1.5,0.67157 1.5,1.5 v 9.274 c 0,0.82843 -0.6716,1.5 -1.5,1.5 h -4.125 l -1.24,35.578 -0.5199,0.62002 -1.2401,-37.69802 c -0.027,-0.82796 0.6716,-1.5 1.5,-1.5 h 4.125 v -6.274 h -61.343 v 6.274 h 4.124 c 0.8284,0 1.5,0.67157 1.5,1.5 v 48.786 l -0.5199,1.5 -2.4801,-48.786 h -4.125 c -0.8284,0 -1.5,-0.67157 -1.5,-1.5 v -9.274 c 0,-0.82843 0.6716,-1.5 1.5,-1.5 z"
           id="Path_158"
           style="fill:#5fbcd3" />
        <g
           id="Path_159"
           style="fill:#00ffff;stroke:#5ce7f1;stroke-opacity:0.0588235">
          <g
             id="path49"
             style="fill:#afdde9">
            <path
               style="fill:#afdde9;stroke:none;stroke-opacity:1"
               d="m 2872.2973,42.939373 c -0.8284,0 -1.4999,0.671524 -1.4999,1.499951 v 37.216018 h -4.3724 c -0.8284,0 -1.5,0.671524 -1.5,1.499951 v 5.455836 h -5.0608 c -0.8284,0 -1.5,0.671524 -1.5,1.499951 v 8.828257 h -5.4002 c -0.8273,0.0017 -1.4972,0.672692 -1.4972,1.499953 v 87.60844 l 1.1398,1.78026 1.8601,-87.88875 h 5.4001 c 0.8284,0 1.5,-0.67152 1.5,-1.49995 v -8.828259 h 5.0609 c 0.8284,0 1.4999,-0.671524 1.4999,-1.499951 v -5.455836 h 4.3724 c 0.8284,0 1.5,-0.671524 1.5,-1.499951 V 45.939275 h 3.3293 v 37.216018 c 0,0.828427 0.6715,1.499951 1.4999,1.499951 h 4.3706 v 5.455836 c 0,0.828427 0.6716,1.499951 1.5,1.499951 h 5.0582 v 8.829159 c 0,0.82843 0.6715,1.49995 1.4999,1.49995 h 5.4002 v 53.16163 c 0.1366,-0.0265 0.2751,-0.0417 0.4147,-0.0431 0.044,-4.4e-4 0.087,6.5e-4 0.1311,0.003 6e-4,-4e-5 0,4e-5 0,0 0.085,-0.006 0.169,-0.0389 0.2549,-0.0341 0.051,0.003 0.094,0.0322 0.1311,0.0844 0.1441,0.0309 0.2878,0.0763 0.4299,0.13464 l 1.6364,-54.8079 c 0.025,-0.828056 -0.6715,-1.49995 -1.4999,-1.49995 h -5.4002 v -8.828257 c 0,-0.828427 -0.6716,-1.499951 -1.5,-1.499951 h -5.0608 v -5.454939 c 0,-0.828427 -0.6716,-1.499951 -1.5,-1.499951 h -4.3724 V 44.439324 c 0,-0.828427 -0.6715,-1.499951 -1.4999,-1.499951 z m 24.1608,164.945237 v 1.7477 l 1.0081,-0.50358 c -0.3852,-0.29418 -0.7308,-0.7101 -1.0081,-1.24412 z"
               id="path56" />
            <path
               style="fill:#afdde9;fill-opacity:0.0588235;stroke:none;stroke-opacity:1"
               d="m 2872.2969,42.439453 c -1.0986,0 -2,0.901382 -2,2 V 81.15625 h -3.8711 c -1.0986,0 -2,0.901342 -2,2 v 4.955078 h -4.5625 c -1.0986,0 -2,0.901342 -2,2 v 8.328125 h -4.9004 c -1.0971,0.0023 -1.9961,0.902812 -1.9961,1.999997 v 87.75391 l 2.1055,3.28906 1.8847,-89.04297 h 4.9102 c 1.0986,0 2,-0.90134 2,-2 v -8.328122 h 4.5605 c 1.0986,0 2,-0.901382 2,-2 v -4.957031 h 3.8731 c 1.0986,0 2,-0.899389 2,-1.998047 V 46.439453 h 2.3281 V 83.15625 c 0,1.098618 0.9014,1.998047 2,1.998047 h 3.8711 v 4.957031 c 0,1.098658 0.9014,2 2,2 h 4.5586 v 8.328122 c 0,1.09862 0.9014,2 2,2 h 4.9004 v 53.26953 l 0.5937,-0.11718 c 0.1097,-0.0213 0.2176,-0.0321 0.3243,-0.0332 0.032,-3.2e-4 0.064,9e-5 0.1,0.002 l 0.031,0.002 0.029,-0.002 c 0,9e-5 0,3e-5 0,0 0,-9e-5 0.01,0 0.01,0 3e-4,-3e-5 -3e-4,-0.002 0,-0.002 0.024,-0.002 0.01,-0.002 0.025,-0.004 0.015,-0.001 0.01,-5.4e-4 0.02,-0.002 l 0.01,0.008 0.1895,0.041 c 0.1125,0.0241 0.2288,0.0594 0.3457,0.10742 l 0.6679,0.27539 1.6563,-55.53124 c 0.034,-1.116208 -0.8993,-2.013677 -1.9981,-2.013677 h -4.9004 v -8.328125 c 0,-1.098658 -0.9014,-2 -2,-2 h -4.5605 V 83.15625 c 0,-1.098658 -0.9014,-2 -2,-2 h -3.8731 V 44.439453 c 0,-1.098618 -0.9013,-2 -2,-2 z m 0,1 h 6.3261 c 0.5582,0 1,0.441764 1,1 V 82.15625 h 4.8731 c 0.5582,0 1,0.441804 1,1 v 5.955078 h 5.5605 c 0.5582,0 1,0.441804 1,1 v 9.328125 h 5.9004 c 0.5581,0 1.0163,0.444466 1,0.984377 l -1.6172,54.13476 c -0.022,-0.004 -0.028,-0.028 -0.051,-0.0293 v 0 c -0.2225,-0.0124 -0.3168,0.0292 -0.3066,0.0312 -0.01,-2.5e-4 -0.014,1.9e-4 -0.022,0 v -53.1211 h -5.9004 c -0.5582,0 -1,-0.44176 -1,-1 V 91.111328 H 2884.5 c -0.5582,0 -1,-0.441804 -1,-1 v -5.957031 h -4.8711 c -0.5582,0 -1,-0.439811 -1,-0.998047 V 45.439453 h -4.3281 V 83.15625 c 0,0.558196 -0.4418,0.998047 -1,0.998047 h -4.8731 v 5.957031 c 0,0.558236 -0.4418,1 -1,1 h -5.5605 v 9.328122 c 0,0.5582 -0.4418,1 -1,1 h -5.8906 l -1.834,86.73633 -0.1758,-0.27344 v -87.46289 c 0,-0.557331 0.4405,-0.998851 0.998,-0.999997 h 5.8985 v -9.328125 c 0,-0.558196 0.4418,-1 1,-1 h 5.5625 V 83.15625 c 0,-0.558196 0.4418,-1 1,-1 h 4.8711 V 44.439453 c 0,-0.558236 0.4418,-1 1,-1 z m 24.6933,111.123047 c 0,0 0.014,0.5 0.014,0.5 l 0.023,0.3418 c -0.01,-0.0906 -0.019,-0.17091 -0.037,-0.3418 8e-4,0 0.014,0 0.014,0 0,0 -0.027,-0.49457 -0.033,-0.49805 0.01,-7.2e-4 0.02,-0.002 0.02,-0.002 z m -0.088,53.0918 -0.9433,0.23047 v 2.55664 l 2.4473,-1.22266 -0.6368,-0.48828 c -0.3192,-0.24376 -0.6192,-0.59871 -0.8672,-1.07617 z"
               id="path57" />
          </g>
        </g>
      </g>
      <path
         id="Path_160"
         d="m 2841.3962,178.49778 a 1.494,1.494 0 0 0 -0.947,0.32584 l -17.8594,14.27601 -17.74,14.18356 a 1.506,1.506 0 0 0 -0.6607,1.53586 v 3.48103 a 1.5,1.5 0 0 0 1.5,1.49995 h 4.1489 v 46.92755 a 1.5,1.5 0 0 0 1.4999,1.50085 h 60.0842 a 1.5,1.5 0 0 0 1.5,-1.50085 v -0.42368 c -0.6016,-0.13662 -1.1419,-0.51839 -1.5377,-1.10499 -0.5021,0.0651 -1.0058,-0.0263 -1.4622,-0.2666 v 0.29443 h -57.0843 v -46.92666 a 1.5,1.5 0 0 0 -1.5,-1.49995 h -4.1489 v -1.56907 l 17.2643,-13.80026 16.9267,-13.53098 16.9268,13.53457 17.2642,13.79937 v 1.56637 h -4.1489 a 1.5,1.5 0 0 0 -1.4999,1.49995 v 8.74119 c 0.5292,-0.5268 1.1666,-0.79442 1.8069,-0.79441 0.4069,1e-5 0.8134,0.10958 1.193,0.32225 v -6.76908 h 4.1489 a 1.5,1.5 0 0 0 1.4999,-1.49995 v -3.52322 a 1.489,1.489 0 0 0 -0.5431,-1.39942 l -17.8576,-14.27781 -17.8342,-14.25626 a 1.494,1.494 0 0 0 -0.9398,-0.34559 z"
         style="opacity:0.5;fill:#1c2224" />
      <path
         id="Path_161"
         data-name="Path 161"
         d="m 2862.22,225.116 45.628,-22.855 a 1.494,1.494 0 0 1 1.334,0 v 0 l 20.04,9.984 v -9.006 a 1.5,1.5 0 0 1 1.5,-1.5 h 9.623 a 1.5,1.5 0 0 1 1.5,1.5 v 15.329 l 13.1,6.616 a 1.5,1.5 0 0 1 0.823,1.336 v 0 34.214 a 1.5,1.5 0 0 1 -1.5,1.5 h -91.505 a 1.5,1.5 0 0 1 -1.5,-1.5 v -34.22 a 1.5,1.5 0 0 1 0.956,-1.4 z m 46.292,-19.847 -44.248,22.164 v 31.794 h 88.505 v -31.795 l -13,-6.566 a 1.5,1.5 0 0 1 -0.924,-1.386 v -14.747 h -6.623 v 9.928 0 a 1.5,1.5 0 0 1 -2.167,1.342 z"
         fill="#1a1818"
         fill-rule="evenodd"
         style="opacity:0.5;fill:#1c1c24" />
      <path
         id="Path_162"
         data-name="Path 162"
         d="m 3019.553,259.227 h 87.25 V 210.61 a 1.5,1.5 0 0 1 1.5,-1.5 h 3.087 v -1.838 L 3094.6,187.9 h -45.374 a 1.5,1.5 0 0 1 -1.5,-1.5 v -6.9 h -6.626 v 6.9 a 1.5,1.5 0 0 1 -1.5,1.5 h -7.727 l -16.91,19.378 v 1.836 h 3.087 a 1.5,1.5 0 0 1 1.5,1.5 v 48.617 z m 88.75,3 h -90.25 a 1.5,1.5 0 0 1 -1.5,-1.5 v -48.616 h -3.087 a 1.5,1.5 0 0 1 -1.5,-1.5 v -3.891 0 a 1.487,1.487 0 0 1 0.37,-0.984 l 17.651,-20.228 a 1.5,1.5 0 0 1 1.209,-0.611 h 6.9 v -6.9 a 1.5,1.5 0 0 1 1.5,-1.5 h 9.623 a 1.5,1.5 0 0 1 1.5,1.5 v 6.9 h 44.553 v 0 a 1.491,1.491 0 0 1 1.131,0.518 l 17.535,20.235 a 1.493,1.493 0 0 1 0.445,1.066 v 3.891 a 1.5,1.5 0 0 1 -1.5,1.5 h -3.083 v 48.617 a 1.5,1.5 0 0 1 -1.5,1.504 z"
         fill="#1a1818"
         fill-rule="evenodd"
         style="opacity:0.5;fill:#1c1c24" />
      <path
         id="Path_163"
         d="m 3139.6809,191.98297 a 1.5,1.5 0 0 0 -0.7666,0.38509 l -30.9694,29.42184 c 1.205,0.41366 1.6989,1.55095 1.3079,2.8859 l 29.1902,-27.73518 v 62.28612 h -34.7466 c 0.1124,1.2882 -0.1589,2.30053 -0.6454,3.00169 h 36.8893 a 1.5,1.5 0 0 0 1.4999,-1.50085 v -67.27517 a 1.5,1.5 0 0 0 -1.7611,-1.46944 z m -37.8812,50.77842 c -0.01,1.50533 -0.018,3.01067 -0.021,4.51601 -0.028,0.97935 -0.033,1.95227 0.021,2.92091 z"
         style="opacity:0.5;fill:#1c2224" />
      <path
         id="Path_164"
         data-name="Path 164"
         d="m 3168.836,232.935 -27.062,-25.71 v 52 h 27.062 z m -27.536,-30.284 29.989,28.49 a 1.5,1.5 0 0 1 0.542,1.155 v 28.432 a 1.5,1.5 0 0 1 -1.5,1.5 h -30.062 a 1.5,1.5 0 0 1 -1.5,-1.5 v -56.993 0 a 1.5,1.5 0 0 1 2.528,-1.084 z"
         fill="#1a1818"
         fill-rule="evenodd"
         style="opacity:0.5;fill:#373748" />
      <path
         id="Path_165"
         d="m 3007.3279,149.70518 a 1.5,1.5 0 0 0 -1.0942,0.32405 1.425,1.425 0 0 0 -0.2253,0.2271 l -18.7804,23.01092 a 1.48,1.48 0 0 0 -0.3348,0.94252 h -0.01 v 6.36604 h -21.3 a 1.5,1.5 0 0 0 -1.2719,0.70015 l -17.6,23.78199 a 1.483,1.483 0 0 0 -0.2935,0.89135 v 15.70416 c 0.1528,-0.0312 0.3077,-0.0519 0.4659,-0.0521 0.8762,-0.001 1.8092,0.48023 2.534,1.46944 v -16.63591 l 16.9177,-22.8628 h 22.0478 a 1.5,1.5 0 0 0 1.4999,-1.49995 v -7.33818 l 17.2894,-21.18423 17.2858,21.18423 v 19.80725 c 0.4553,-1.9374 1.5397,-2.88428 2.6624,-2.94784 0.1125,-0.006 0.2249,-0.002 0.3375,0.009 v -17.39261 a 1.5,1.5 0 0 0 -0.4156,-1.03588 l -18.7094,-22.92923 a 1.5,1.5 0 0 0 -1.0045,-0.53948 z m -60.91,108.48479 v 2.53672 a 1.5,1.5 0 0 0 1.4999,1.49995 h 40.4655 v 0.005 h 37.5751 a 1.5,1.5 0 0 0 1.4999,-1.49995 v -1.25938 c -0.1137,-0.0263 -0.2246,-0.0735 -0.3357,-0.11669 -1.1379,2.15037 -3.68,2.16555 -4.9307,-0.12926 h -72.0488 c -1.3116,0.8258 -2.9094,0.42828 -3.7252,-1.03677 z"
         style="opacity:0.5;fill:#1c1c24" />
    </g>
  </g>
</svg>
